<?xml version="1.0" standalone="no"?>
<!DOCTYPE svg PUBLIC "-//W3C//DTD SVG 20010904//EN"
 "http://www.w3.org/TR/2001/REC-SVG-20010904/DTD/svg10.dtd">
<svg version="1.0" xmlns="http://www.w3.org/2000/svg"
 width="300.000000pt" height="110.000000pt" viewBox="0 0 300.000000 167.000000"
 preserveAspectRatio="xMidYMid meet">
<metadata>
Created by potrace 1.10, written by Peter Selinger 2001-2011
</metadata>
<g transform="translate(0.000000,167.000000) scale(0.100000,-0.100000)"
fill="#000000" stroke="none">
<path d="M1180 1504 c-91 -58 -172 -112 -181 -120 -26 -23 -29 -17 -29 51 l0
65 -95 0 -95 0 0 -127 0 -128 -150 -97 c-83 -54 -150 -102 -150 -108 0 -18 30
-23 48 -8 9 8 80 56 157 105 77 50 258 167 403 262 145 94 267 171 272 171 5
0 29 -13 52 -29 43 -29 453 -296 643 -419 55 -35 113 -73 128 -84 27 -19 62
-18 55 1 -3 8 -175 124 -531 355 -49 31 -95 60 -103 63 -8 3 -14 9 -14 13 0 6
106 77 132 88 4 2 188 -116 409 -263 221 -146 408 -264 415 -261 8 3 14 9 14
14 0 5 -125 92 -277 193 -153 100 -338 222 -411 271 -73 48 -139 88 -146 88
-8 0 -50 -24 -94 -54 l-80 -54 -89 59 c-48 32 -95 59 -103 59 -9 0 -90 -48
-180 -106z m-245 -97 l1 -59 -57 -39 c-32 -21 -60 -39 -63 -39 -8 0 -8 185 0
192 3 3 30 5 61 4 l56 -1 2 -58z"/>
<path d="M2544 895 c-4 -9 -2 -21 4 -27 15 -15 44 -1 40 19 -4 23 -36 29 -44
8z"/>
<path d="M2750 759 c0 -128 2 -140 18 -137 15 3 17 19 20 141 2 132 2 137 -18
137 -19 0 -20 -6 -20 -141z"/>
<path d="M250 725 c0 -98 1 -105 20 -105 18 0 20 7 20 74 0 83 13 106 59 106
43 0 51 -17 51 -102 0 -71 2 -78 20 -78 18 0 20 7 20 78 0 85 8 102 51 102 47
0 59 -23 59 -106 0 -65 2 -75 17 -72 14 3 16 15 14 83 -2 66 -6 84 -23 103
-28 28 -87 30 -112 3 -17 -19 -18 -19 -37 0 -21 21 -69 25 -100 9 -13 -7 -19
-7 -19 0 0 5 -9 10 -20 10 -19 0 -20 -7 -20 -105z"/>
<path d="M763 731 c38 -94 40 -104 28 -134 -25 -61 -25 -69 -6 -66 13 3 34 43
71 134 30 72 58 138 64 148 8 14 6 17 -12 17 -20 0 -27 -12 -51 -81 -16 -44
-32 -78 -35 -74 -4 3 -18 38 -32 78 -20 55 -31 73 -48 75 -20 3 -18 -3 21 -97z"/>
<path d="M1065 728 c1 -89 3 -103 18 -106 15 -3 17 6 17 72 0 83 12 106 59
106 43 0 51 -17 51 -102 0 -71 2 -78 20 -78 18 0 20 7 20 78 0 85 8 102 51
102 46 0 59 -23 59 -106 0 -59 3 -74 15 -74 12 0 15 16 15 83 0 74 -3 86 -23
105 -30 28 -87 29 -111 3 -17 -19 -18 -19 -37 0 -23 23 -81 25 -103 3 -15 -14
-16 -14 -16 0 0 9 -8 16 -17 16 -16 0 -18 -11 -18 -102z"/>
<path d="M1578 800 c-28 -28 -30 -35 -26 -82 4 -40 12 -57 32 -75 34 -29 75
-29 110 -2 l26 20 0 -21 c0 -14 5 -20 16 -18 13 2 16 21 17 106 2 91 0 102
-15 102 -10 0 -18 -7 -18 -16 0 -14 -2 -14 -22 0 -37 26 -85 20 -120 -14z
m122 -20 c28 -28 26 -75 -5 -105 -13 -14 -33 -25 -43 -25 -29 0 -61 31 -68 65
-13 67 69 112 116 65z"/>
<path d="M1920 724 c0 -95 2 -105 18 -102 14 3 18 16 20 78 3 83 12 100 53
100 47 0 59 -22 59 -106 0 -65 2 -75 17 -72 14 3 16 15 14 83 -3 97 -21 125
-82 125 -21 0 -41 -4 -44 -10 -3 -5 -11 -10 -16 -10 -6 0 -7 5 -4 10 3 6 -3
10 -14 10 -20 0 -21 -6 -21 -106z"/>
<path d="M2250 815 c0 -11 12 -15 51 -15 28 0 49 -3 47 -7 -1 -5 -25 -41 -52
-81 -34 -49 -46 -76 -39 -83 5 -5 39 -9 74 -7 49 2 64 7 64 18 0 12 -10 14
-47 12 -27 -2 -48 -1 -48 3 0 3 23 39 50 80 28 41 50 79 50 85 0 6 -30 10 -75
10 -60 0 -75 -3 -75 -15z"/>
<path d="M2550 725 c0 -87 3 -105 15 -105 12 0 15 18 15 105 0 87 -3 105 -15
105 -12 0 -15 -18 -15 -105z"/>
<path d="M1315 459 c-3 -8 -4 -60 -3 -114 l3 -100 -26 -3 c-15 -2 -43 4 -63
12 -34 14 -36 14 -36 -3 0 -12 10 -21 25 -25 31 -8 32 -21 3 -40 -39 -24 -83
-28 -123 -12 -35 15 -37 18 -33 57 4 53 -18 65 -27 16 -4 -19 -5 -43 -3 -52
14 -74 206 -77 225 -4 3 12 14 19 29 19 13 0 33 9 45 21 20 20 21 28 14 123
-7 97 -18 136 -30 105z"/>
<path d="M1407 404 c-14 -14 -7 -35 11 -32 9 2 17 10 17 17 0 16 -18 25 -28
15z"/>
<path d="M1693 322 c-10 -11 -26 -33 -35 -50 -28 -52 -87 -40 -79 16 4 35 -24
27 -34 -10 -8 -28 -15 -33 -40 -33 -25 0 -31 6 -44 40 -18 50 -17 49 -35 42
-14 -5 -14 -9 -1 -34 8 -15 15 -36 15 -46 0 -19 -40 -63 -75 -83 -14 -8 -17
-15 -10 -23 14 -14 70 20 93 57 14 24 20 27 34 18 13 -8 26 -7 49 1 21 8 38 9
50 3 24 -14 63 -12 77 2 9 9 18 9 37 0 35 -16 51 -15 69 4 22 22 20 70 -4 94
-25 25 -45 25 -67 2z m58 -33 c9 -17 8 -25 -5 -37 -12 -13 -20 -13 -41 -4 -25
11 -25 13 -9 37 20 31 40 32 55 4z"/>
<path d="M1094 99 c-10 -17 13 -36 27 -22 12 12 4 33 -11 33 -5 0 -12 -5 -16
-11z"/>
<path d="M1147 103 c-4 -3 -7 -12 -7 -20 0 -15 26 -18 34 -4 7 11 -18 33 -27
24z"/>
</g>
</svg>
