<?xml version="1.0" standalone="no"?>
<!DOCTYPE svg PUBLIC "-//W3C//DTD SVG 20010904//EN"
 "http://www.w3.org/TR/2001/REC-SVG-20010904/DTD/svg10.dtd">
<svg version="1.0" xmlns="http://www.w3.org/2000/svg"
 width="300.000000pt" height="300.000000pt" viewBox="0 0 300.000000 300.000000"
 preserveAspectRatio="xMidYMid meet">
<metadata>
Created by potrace 1.10, written by Peter Selinger 2001-2011
</metadata>
<g transform="translate(0.000000,300.000000) scale(0.100000,-0.100000)"
fill="#000000" stroke="none">
<path d="M1285 1834 c-55 -37 -105 -68 -112 -71 -7 -3 -13 9 -15 34 l-3 38
-55 0 -55 0 -3 -80 -3 -80 -89 -58 c-82 -53 -107 -77 -80 -77 5 0 127 76 270
170 l261 169 217 -141 c119 -77 236 -154 260 -169 24 -16 47 -29 53 -29 26 0
0 25 -81 77 -50 32 -140 90 -200 129 l-111 72 45 26 45 26 248 -164 c145 -96
252 -160 257 -155 5 5 8 10 5 12 -2 3 -118 79 -258 171 l-254 167 -54 -36 -53
-35 -52 35 c-29 19 -60 35 -68 35 -8 0 -60 -30 -115 -66z m-145 -58 c0 -33
-13 -49 -66 -79 -7 -4 -10 14 -10 54 l1 59 38 0 c36 0 37 -1 37 -34z"/>
<path d="M2260 1380 c0 -53 4 -90 10 -90 6 0 10 37 10 90 0 53 -4 90 -10 90
-6 0 -10 -37 -10 -90z"/>
<path d="M765 1420 c-11 -4 -26 -5 -32 -3 -10 4 -13 -12 -13 -61 0 -37 4 -66
10 -66 6 0 10 19 10 43 0 53 11 70 41 65 21 -3 24 -9 27 -56 2 -35 7 -52 15
-49 7 2 10 20 9 43 -3 49 8 67 39 62 21 -3 24 -9 27 -56 2 -35 7 -52 15 -49
19 6 9 99 -13 119 -20 16 -55 14 -66 -3 -3 -5 -15 -3 -27 5 -13 8 -30 11 -42
6z"/>
<path d="M1347 1415 c-15 -8 -29 -10 -32 -4 -4 5 -26 8 -51 7 l-44 -1 0 -64
c0 -35 4 -63 10 -63 6 0 10 19 10 43 0 53 11 70 41 65 21 -3 24 -9 27 -55 4
-63 22 -71 22 -10 0 53 11 70 41 65 21 -3 24 -9 27 -55 2 -29 8 -53 13 -53 6
0 9 24 7 56 -4 70 -26 92 -71 69z"/>
<path d="M1790 1420 c-6 -4 -20 -6 -29 -3 -14 3 -16 -5 -15 -59 2 -77 22 -90
26 -16 3 47 6 53 27 56 30 5 41 -12 41 -65 0 -24 5 -43 10 -43 15 0 12 106 -2
117 -21 16 -44 22 -58 13z"/>
<path d="M1010 1416 c0 -2 11 -29 25 -60 19 -44 23 -61 15 -82 -12 -31 -13
-44 -2 -44 5 0 24 37 41 83 18 45 36 88 39 96 3 8 0 12 -8 9 -7 -2 -21 -24
-30 -48 l-18 -45 -16 39 c-9 21 -16 42 -16 47 0 5 -7 9 -15 9 -8 0 -15 -2 -15
-4z"/>
<path d="M1530 1399 c-30 -56 21 -132 69 -102 13 8 22 9 26 3 14 -22 25 4 25
59 l0 58 -55 2 c-45 1 -56 -3 -65 -20z m88 -36 c5 -55 -61 -70 -74 -17 -8 32
13 56 45 52 21 -2 27 -9 29 -35z"/>
<path d="M1950 1410 c0 -5 14 -10 30 -10 l31 0 -31 -44 c-16 -25 -30 -49 -30
-54 0 -5 20 -10 45 -10 34 -2 45 2 45 13 0 11 -8 13 -32 8 l-33 -6 19 29 c11
16 25 38 33 49 20 30 16 35 -32 35 -25 0 -45 -4 -45 -10z"/>
<path d="M2130 1354 c0 -48 3 -65 13 -62 7 3 13 28 15 66 2 51 0 62 -13 62
-12 0 -15 -13 -15 -66z"/>
<path d="M1372 1133 c3 -73 -8 -87 -51 -64 -13 8 -22 8 -26 1 -3 -6 1 -13 9
-16 26 -10 18 -32 -13 -39 -40 -8 -71 9 -71 40 0 14 -4 25 -10 25 -5 0 -10
-13 -10 -30 0 -40 37 -65 85 -56 20 4 41 16 48 26 6 11 20 20 30 20 24 0 34
34 29 103 -6 82 -25 73 -20 -10z"/>
<path d="M1445 1087 c7 -34 -7 -59 -36 -69 -7 -2 -10 -11 -7 -18 3 -11 12 -7
35 15 28 29 33 30 114 30 100 -1 109 1 109 25 0 56 -41 68 -68 20 -19 -33 -59
-39 -54 -8 4 27 -15 30 -22 3 -9 -34 -32 -31 -51 5 -20 39 -27 38 -20 -3z
m198 -2 c7 -17 -8 -29 -28 -21 -17 6 -9 36 10 36 7 0 15 -7 18 -15z"/>
<path d="M1234 968 c-6 -10 -7 -9 29 -14 18 -2 27 1 25 8 -5 14 -47 18 -54 6z"/>
</g>
</svg>
